HIERARCHY
ROOT hip
{
  OFFSET 0 0 0
  CHANNELS 6 Xposition Yposition Zposition Zrotation Yrotation Xrotation
  JOINT abdomen
  {
    OFFSET 0 20.6881 -0.73152
    CHANNELS 3 Zrotation Xrotation Yrotation
    JOINT chest
    {
      OFFSET 0 11.7043 -0.48768
      CHANNELS 3 Zrotation Xrotation Yrotation
      JOINT neck
      {
        OFFSET 0 22.1894 -2.19456
        CHANNELS 3 Zrotation Xrotation Yrotation
        JOINT head
        {
          OFFSET -0.24384 7.07133 1.2192
          CHANNELS 3 Zrotation Xrotation Yrotation
          JOINT leftEye
          {
            OFFSET 4.14528 8.04674 8.04672
            CHANNELS 3 Zrotation Xrotation Yrotation
            End Site
            {
              OFFSET 1 0 0
            }
          }
          JOINT rightEye
          {
            OFFSET -3.6576 8.04674 8.04672
            CHANNELS 3 Zrotation Xrotation Yrotation
            End Site
            {
              OFFSET 1 0 0
            }
          }
        }
      }
      JOINT rCollar
      {
        OFFSET -2.68224 19.2634 -4.8768
        CHANNELS 3 Zrotation Xrotation Yrotation
        JOINT rShldr
        {
          OFFSET -8.77824 -1.95073 1.46304
          CHANNELS 3 Zrotation Xrotation Yrotation
          JOINT rForeArm
          {
            OFFSET -28.1742 -1.7115 0.48768
            CHANNELS 3 Zrotation Xrotation Yrotation
            JOINT rHand
            {
              OFFSET -22.5879 0.773209 7.07136
              CHANNELS 3 Zrotation Xrotation Yrotation
              JOINT rThumb1
              {
                OFFSET -1.2192 -0.487915 3.41376
                CHANNELS 3 Zrotation Xrotation Yrotation
                JOINT rThumb2
                {
                  OFFSET -3.37035 -0.52449 3.41376
                  CHANNELS 3 Zrotation Xrotation Yrotation
                  End Site
                  {
                    OFFSET -1.78271 -1.18214 1.43049
                  }
                }
              }
              JOINT rIndex1
              {
                OFFSET -7.75947 0.938293 5.60832
                CHANNELS 3 Zrotation Xrotation Yrotation
                JOINT rIndex2
                {
                  OFFSET -2.54057 -0.884171 1.56538
                  CHANNELS 3 Zrotation Xrotation Yrotation
                  End Site
                  {
                    OFFSET -1.62519 -0.234802 1.16502
                  }
                }
              }
              JOINT rMid1
              {
                OFFSET -8.24714 1.18213 3.41376
                CHANNELS 3 Zrotation Xrotation Yrotation
                JOINT rMid2
                {
                  OFFSET -3.10165 -0.590103 1.0647
                  CHANNELS 3 Zrotation Xrotation Yrotation
                  End Site
                  {
                    OFFSET -2.48547 -0.328903 0.83742
                  }
                }
              }
              JOINT rRing1
              {
                OFFSET -8.82822 0.546677 1.51678
                CHANNELS 3 Zrotation Xrotation Yrotation
                JOINT rRing2
                {
                  OFFSET -2.60934 -0.819778 -0.0198488
                  CHANNELS 3 Zrotation Xrotation Yrotation
                  End Site
                  {
                    OFFSET -2.33842 -0.294052 0.168128
                  }
                }
              }
              JOINT rPinky1
              {
                OFFSET -8.27202 -0.0477905 -0.4584
                CHANNELS 3 Zrotation Xrotation Yrotation
                JOINT rPinky2
                {
                  OFFSET -1.82734 -0.647385 -0.700984
                  CHANNELS 3 Zrotation Xrotation Yrotation
                  End Site
                  {
                    OFFSET -1.69225 -0.51767 -0.607171
                  }
                }
              }
            }
          }
        }
      }
      JOINT lCollar
      {
        OFFSET 2.68224 19.2634 -4.8768
        CHANNELS 3 Zrotation Xrotation Yrotation
        JOINT lShldr
        {
          OFFSET 8.77824 -1.95073 1.46304
          CHANNELS 3 Zrotation Xrotation Yrotation
          JOINT lForeArm
          {
            OFFSET 28.1742 -1.7115 0.48768
            CHANNELS 3 Zrotation Xrotation Yrotation
            JOINT lHand
            {
              OFFSET 22.5879 0.773209 7.07136
              CHANNELS 3 Zrotation Xrotation Yrotation
              JOINT lThumb1
              {
                OFFSET 1.2192 -0.487915 3.41376
                CHANNELS 3 Zrotation Xrotation Yrotation
                JOINT lThumb2
                {
                  OFFSET 3.37035 -0.52449 3.41376
                  CHANNELS 3 Zrotation Xrotation Yrotation
                  End Site
                  {
                    OFFSET 1.78271 -1.18214 1.43049
                  }
                }
              }
              JOINT lIndex1
              {
                OFFSET 7.75947 0.938293 5.60832
                CHANNELS 3 Zrotation Xrotation Yrotation
                JOINT lIndex2
                {
                  OFFSET 2.54057 -0.884171 1.56538
                  CHANNELS 3 Zrotation Xrotation Yrotation
                  End Site
                  {
                    OFFSET 1.62519 -0.234802 1.16502
                  }
                }
              }
              JOINT lMid1
              {
                OFFSET 8.24714 1.18213 3.41376
                CHANNELS 3 Zrotation Xrotation Yrotation
                JOINT lMid2
                {
                  OFFSET 3.10165 -0.590103 1.0647
                  CHANNELS 3 Zrotation Xrotation Yrotation
                  End Site
                  {
                    OFFSET 2.48547 -0.328903 0.83742
                  }
                }
              }
              JOINT lRing1
              {
                OFFSET 8.82822 0.546677 1.51678
                CHANNELS 3 Zrotation Xrotation Yrotation
                JOINT lRing2
                {
                  OFFSET 2.60934 -0.819778 -0.0198488
                  CHANNELS 3 Zrotation Xrotation Yrotation
                  End Site
                  {
                    OFFSET 2.33842 -0.294052 0.168128
                  }
                }
              }
              JOINT lPinky1
              {
                OFFSET 8.27202 -0.0477905 -0.4584
                CHANNELS 3 Zrotation Xrotation Yrotation
                JOINT lPinky2
                {
                  OFFSET 1.82734 -0.647385 -0.700984
                  CHANNELS 3 Zrotation Xrotation Yrotation
                  End Site
                  {
                    OFFSET 1.69225 -0.51767 -0.607171
                  }
                }
              }
            }
          }
        }
      }
    }
  }
  JOINT rButtock
  {
    OFFSET -8.77824 4.35084 1.2192
    CHANNELS 3 Zrotation Xrotation Yrotation
    JOINT rThigh
    {
      OFFSET 0 -1.70687 -2.19456
      CHANNELS 3 Zrotation Xrotation Yrotation
      JOINT rShin
      {
        OFFSET 0 -36.8199 0.73152
        CHANNELS 3 Zrotation Xrotation Yrotation
        JOINT rFoot
        {
          OFFSET 0.73152 -45.1104 -5.12064
          CHANNELS 3 Zrotation Xrotation Yrotation
          End Site
          {
            OFFSET -1.1221 -3.69964 12.103
          }
        }
      }
    }
  }
  JOINT lButtock
  {
    OFFSET 8.77824 4.35084 1.2192
    CHANNELS 3 Zrotation Xrotation Yrotation
    JOINT lThigh
    {
      OFFSET 0 -1.70687 -2.19456
      CHANNELS 3 Zrotation Xrotation Yrotation
      JOINT lShin
      {
        OFFSET 0 -36.8199 0.73152
        CHANNELS 3 Zrotation Xrotation Yrotation
        JOINT lFoot
        {
          OFFSET -0.73152 -45.1104 -5.12064
          CHANNELS 3 Zrotation Xrotation Yrotation
          End Site
          {
            OFFSET 1.1221 -3.69964 12.103
          }
        }
      }
    }
  }
}
MOTION
Frames:	6
Frame Time:	0.03333
-0.0015100000382517464 51.70860290527344 -0.0029999999242136255 -13.830103874206543 -25.59109115600586 11.700296401977539 10.984500885009766 3.999145984649658 3.381831645965576 2.8310680389404297 -5.871488571166992 0.9585778117179871 -1.9170119762420654 10.13278579711914 1.9133785963058472 5.104888439178467 -18.328001022338867 4.770143032073975 -0.0 0.0 -0.0 -0.0 0.0 -0.0 -0.0 0.0 -0.0 103.25700378417969 49.68181228637695 -52.07890319824219 -27.248294830322266 -43.312503814697266 90.09358978271484 -3.8655407428741455 -47.40119934082031 -8.791748046875 -0.0 0.0 -0.0 -0.0 0.0 -0.0 -0.0 0.0 -0.0 7.730876445770264 5.474895000457764 0.41732463240623474 -0.0 0.0 -0.0 2.9054994583129883 0.9650753736495972 0.10300876200199127 -0.0 0.0 -0.0 10.278595924377441 0.7317469120025635 0.026285577565431595 -0.0 0.0 -0.0 2.221662759780884 -0.7335850596427917 -0.20831839740276337 -0.0 0.0 -0.0 -40.2146110534668 29.678205490112305 -39.460201263427734 16.378807067871094 -9.044574737548828 -30.476892471313477 1.0885368585586548 28.229202270507812 -4.327049732208252 -0.0 0.0 -0.0 -0.0 0.0 -0.0 -0.0 0.0 -0.0 -7.730876445770264 5.474895000457764 -0.41732463240623474 -0.0 0.0 -0.0 -2.9054994583129883 0.9650753736495972 -0.10300876200199127 -0.0 0.0 -0.0 -10.278595924377441 0.7317469120025635 -0.026285577565431595 -0.0 0.0 -0.0 -2.221662759780884 -0.7335850596427917 0.20831839740276337 -0.0 0.0 -0.0 -10.00229549407959 14.489399909973145 0.3161919116973877 0.10471964627504349 29.49059295654297 2.414957284927368 -11.445686340332031 -18.650312423706055 -36.051395416259766 -0.0 0.0 -0.0 82.76670837402344 -52.51141357421875 77.7107925415039 7.531421184539795 82.06785583496094 -7.078421592712402 -0.13338357210159302 -4.990482330322266 -3.909876585006714
0.0027600000976235606 51.704299449920654 -0.0029999999242136255 -13.817495346069336 -25.608400344848633 11.712296485900879 10.96888542175293 3.9940590858459473 3.3133344650268555 2.878358840942383 -5.903156757354736 0.9419073462486267 -2.3402225971221924 10.152599334716797 1.2937654256820679 5.282589435577393 -18.402490615844727 3.623455286026001 -0.0 0.0 -0.0 -0.0 0.0 -0.0 -0.0 0.0 -0.0 103.2969970703125 49.80880355834961 -52.16149139404297 -27.251991271972656 -43.301513671875 90.07218933105469 -3.838768482208252 -47.402259826660156 -8.779928207397461 -0.0 0.0 -0.0 -0.0 0.0 -0.0 -0.0 0.0 -0.0 7.730876445770264 5.474895000457764 0.41732463240623474 -0.0 0.0 -0.0 2.9054994583129883 0.9650753736495972 0.10300876200199127 -0.0 0.0 -0.0 10.278595924377441 0.7317469120025635 0.026285577565431595 -0.0 0.0 -0.0 2.221662759780884 -0.7335850596427917 -0.20831839740276337 -0.0 0.0 -0.0 -40.335391998291016 29.63849449157715 -39.32419204711914 16.385597229003906 -9.050336837768555 -30.490894317626953 1.1047818660736084 28.2386531829834 -4.332734107971191 -0.0 0.0 -0.0 -0.0 0.0 -0.0 -0.0 0.0 -0.0 -7.730876445770264 5.474895000457764 -0.41732463240623474 -0.0 0.0 -0.0 -2.9054994583129883 0.9650753736495972 -0.10300876200199127 -0.0 0.0 -0.0 -10.278595924377441 0.7317469120025635 -0.026285577565431595 -0.0 0.0 -0.0 -2.221662759780884 -0.7335850596427917 0.20831839740276337 -0.0 0.0 -0.0 -10.029894828796387 14.463194847106934 0.3117711842060089 0.10528086870908737 29.513290405273438 2.4158573150634766 -11.453980445861816 -18.654903411865234 -36.06239318847656 -0.0 0.0 -0.0 82.76148986816406 -52.51309585571289 77.72068786621094 7.54875373840332 82.0798110961914 -7.097007751464844 -0.1382329910993576 -4.989663600921631 -3.8901093006134033
0.0054600001021754 51.699697971343994 0.0 -13.763394355773926 -25.629596710205078 11.700297355651855 10.888876914978027 3.9856059551239014 3.24788498878479 2.9497790336608887 -5.932326316833496 0.9263205528259277 -2.827875852584839 10.20649242401123 0.5865144729614258 5.524499893188477 -18.51288414001465 2.3210930824279785 -0.0 0.0 -0.0 -0.0 0.0 -0.0 -0.0 0.0 -0.0 103.33100128173828 49.939701080322266 -52.234989166259766 -27.25789451599121 -43.28410720825195 90.03820037841797 -3.8332223892211914 -47.37794876098633 -8.772384643554688 -0.0 0.0 -0.0 -0.0 0.0 -0.0 -0.0 0.0 -0.0 7.730876445770264 5.474895000457764 0.41732463240623474 -0.0 0.0 -0.0 2.9054994583129883 0.9650753736495972 0.10300876200199127 -0.0 0.0 -0.0 10.278595924377441 0.7317469120025635 0.026285577565431595 -0.0 0.0 -0.0 2.221662759780884 -0.7335850596427917 -0.20831839740276337 -0.0 0.0 -0.0 -40.43840026855469 29.61209487915039 -39.20359420776367 16.391786575317383 -9.056254386901855 -30.504009246826172 1.0862977504730225 28.203096389770508 -4.3223161697387695 -0.0 0.0 -0.0 -0.0 0.0 -0.0 -0.0 0.0 -0.0 -7.730876445770264 5.474895000457764 -0.41732463240623474 -0.0 0.0 -0.0 -2.9054994583129883 0.9650753736495972 -0.10300876200199127 -0.0 0.0 -0.0 -10.278595924377441 0.7317469120025635 -0.026285577565431595 -0.0 0.0 -0.0 -2.221662759780884 -0.7335850596427917 0.20831839740276337 -0.0 0.0 -0.0 -10.080896377563477 14.417505264282227 0.32245200872421265 0.10566774010658264 29.561595916748047 2.417520761489868 -11.481095314025879 -18.64450454711914 -36.11540222167969 -0.0 0.0 -0.0 82.70709228515625 -52.513587951660156 77.71759033203125 7.556204795837402 82.08140563964844 -7.10303258895874 -0.12430205941200256 -4.987122535705566 -3.8701775074005127
0.003240000114601571 51.69709920883179 0.003999999898951501 -13.705398559570312 -25.650188446044922 11.668396949768066 10.824080467224121 3.9832546710968018 3.159973621368408 3.014092445373535 -5.9561543464660645 0.9046193361282349 -3.2754366397857666 10.356878280639648 -0.14406973123550415 5.702427387237549 -18.7099666595459 0.954377293586731 -0.0 0.0 -0.0 -0.0 0.0 -0.0 -0.0 0.0 -0.0 103.36897277832031 50.08620071411133 -52.29758071899414 -27.2643985748291 -43.26469802856445 90.00050354003906 -3.8432517051696777 -47.387264251708984 -8.77881908416748 -0.0 0.0 -0.0 -0.0 0.0 -0.0 -0.0 0.0 -0.0 7.730876445770264 5.474895000457764 0.41732463240623474 -0.0 0.0 -0.0 2.9054994583129883 0.9650753736495972 0.10300876200199127 -0.0 0.0 -0.0 10.278595924377441 0.7317469120025635 0.026285577565431595 -0.0 0.0 -0.0 2.221662759780884 -0.7335850596427917 -0.20831839740276337 -0.0 0.0 -0.0 -40.52250289916992 29.58559799194336 -39.07619857788086 16.40029525756836 -9.064547538757324 -30.52239990234375 1.0821927785873413 28.15509605407715 -4.31363582611084 -0.0 0.0 -0.0 -0.0 0.0 -0.0 -0.0 0.0 -0.0 -7.730876445770264 5.474895000457764 -0.41732463240623474 -0.0 0.0 -0.0 -2.9054994583129883 0.9650753736495972 -0.10300876200199127 -0.0 0.0 -0.0 -10.278595924377441 0.7317469120025635 -0.026285577565431595 -0.0 0.0 -0.0 -2.221662759780884 -0.7335850596427917 0.20831839740276337 -0.0 0.0 -0.0 -10.115302085876465 14.415410995483398 0.337905615568161 0.1051030382514 29.57439613342285 2.418114423751831 -11.501606941223145 -18.641494750976562 -36.15379333496094 -0.0 0.0 -0.0 82.65340423583984 -52.513404846191406 77.69779968261719 7.558720588684082 82.08031463623047 -7.104272365570068 -0.13121522963047028 -4.989852428436279 -3.8606503009796143
-0.005329999657988083 51.696497201919556 0.003999999898951501 -13.677498817443848 -25.651500701904297 11.643102645874023 10.774502754211426 3.986910104751587 3.049663543701172 3.071324586868286 -5.974507808685303 0.8764548897743225 -3.6791741847991943 10.603599548339844 -0.8980816602706909 5.809495449066162 -18.99189567565918 -0.4745126962661743 -0.0 0.0 -0.0 -0.0 0.0 -0.0 -0.0 0.0 -0.0 103.41300201416016 50.2483024597168 -52.34919738769531 -27.271400451660156 -43.2434196472168 89.95911407470703 -3.8721258640289307 -47.43000411987305 -8.800689697265625 -0.0 0.0 -0.0 -0.0 0.0 -0.0 -0.0 0.0 -0.0 7.730876445770264 5.474895000457764 0.41732463240623474 -0.0 0.0 -0.0 2.9054994583129883 0.9650753736495972 0.10300876200199127 -0.0 0.0 -0.0 10.278595924377441 0.7317469120025635 0.026285577565431595 -0.0 0.0 -0.0 2.221662759780884 -0.7335850596427917 -0.20831839740276337 -0.0 0.0 -0.0 -40.587493896484375 29.559101104736328 -38.94219207763672 16.411394119262695 -9.075033187866211 -30.545907974243164 1.0770846605300903 28.095298767089844 -4.302800178527832 -0.0 0.0 -0.0 -0.0 0.0 -0.0 -0.0 0.0 -0.0 -7.730876445770264 5.474895000457764 -0.41732463240623474 -0.0 0.0 -0.0 -2.9054994583129883 0.9650753736495972 -0.10300876200199127 -0.0 0.0 -0.0 -10.278595924377441 0.7317469120025635 -0.026285577565431595 -0.0 0.0 -0.0 -2.221662759780884 -0.7335850596427917 0.20831839740276337 -0.0 0.0 -0.0 -10.133110046386719 14.456695556640625 0.3578342795372009 0.10491024702787399 29.551406860351562 2.417459011077881 -11.515721321105957 -18.645994186401367 -36.177696228027344 -0.0 0.0 -0.0 82.60070037841797 -52.51219940185547 77.66109466552734 7.557365894317627 82.07673645019531 -7.101834774017334 -0.12653043866157532 -4.998819351196289 -3.8600876331329346
-0.016069999946921598 51.69600248336792 0.0019999999494757503 -13.684804916381836 -25.621307373046875 11.649088859558105 10.76089859008789 3.976393222808838 2.936872720718384 3.118166923522949 -5.998398780822754 0.8468806147575378 -4.067720413208008 10.841989517211914 -1.6274811029434204 5.931827068328857 -19.230688095092773 -1.85922372341156 -0.0 0.0 -0.0 -0.0 0.0 -0.0 -0.0 0.0 -0.0 103.44998168945312 50.39108657836914 -52.403995513916016 -27.275693893432617 -43.230003356933594 89.93359375 -3.854743480682373 -47.43756866455078 -8.794434547424316 -0.0 0.0 -0.0 -0.0 0.0 -0.0 -0.0 0.0 -0.0 7.730876445770264 5.474895000457764 0.41732463240623474 -0.0 0.0 -0.0 2.9054994583129883 0.9650753736495972 0.10300876200199127 -0.0 0.0 -0.0 10.278595924377441 0.7317469120025635 0.026285577565431595 -0.0 0.0 -0.0 2.221662759780884 -0.7335850596427917 -0.20831839740276337 -0.0 0.0 -0.0 -40.65349578857422 29.538002014160156 -38.81639099121094 16.419788360595703 -9.083226203918457 -30.563995361328125 1.0757373571395874 28.0795955657959 -4.299922466278076 -0.0 0.0 -0.0 -0.0 0.0 -0.0 -0.0 0.0 -0.0 -7.730876445770264 5.474895000457764 -0.41732463240623474 -0.0 0.0 -0.0 -2.9054994583129883 0.9650753736495972 -0.10300876200199127 -0.0 0.0 -0.0 -10.278595924377441 0.7317469120025635 -0.026285577565431595 -0.0 0.0 -0.0 -2.221662759780884 -0.7335850596427917 0.20831839740276337 -0.0 0.0 -0.0 -10.12039566040039 14.48609447479248 0.3536803424358368 0.10459718108177185 29.523197174072266 2.4165966510772705 -11.515012741088867 -18.64620018005371 -36.181304931640625 -0.0 0.0 -0.0 82.60979461669922 -52.51720428466797 77.66720581054688 7.560616970062256 82.0758056640625 -7.105546474456787 -0.12719768285751343 -5.001760005950928 -3.873081684112549
